<svg xmlns="http://www.w3.org/2000/svg" viewBox="0 0 389.28 86.96"><defs><style>.cls-1{font-size:80px;font-family: 'Myriad Pro', 'myriad-pro', 'Segoe UI', 'Helvetica Neue', 'Helvetica', sans-serif;font-weight:700;}.cls-2{letter-spacing:-0.03em;}.cls-3{fill:none;stroke:#e41f35;stroke-miterlimit:10;stroke-width:2px;}</style></defs><title>double-up</title><g id="Layer_2" data-name="Layer 2"><g id="Layer_1-2" data-name="Layer 1"><text class="cls-1" transform="translate(0 66.96)">Double u<tspan class="cls-2" x="323.36" y="0">p</tspan><tspan x="368.48" y="0">.</tspan></text><path class="cls-3" d="M3.28,11.76a108.76,108.76,0,0,1,16.48-1.12c10.24,0,16.88,1.84,22.08,5.76C47.44,20.56,51,27.2,51,36.72,51,47,47.2,54.16,42,58.56c-5.68,4.72-14.32,7-24.88,7a105.53,105.53,0,0,1-13.84-.8Zm12.24,44a22.41,22.41,0,0,0,4.24.24C30.8,56.08,38,50,38,37.12,38.08,25.92,31.52,20,21,20a25.35,25.35,0,0,0-5.52.48Z"/><path class="cls-3" d="M97.2,45C97.2,59.28,87,65.84,76.56,65.84c-11.44,0-20.24-7.52-20.24-20.16S64.64,25,77.2,25C89.2,25,97.2,33.2,97.2,45Zm-28.32.4c0,6.72,2.8,11.76,8,11.76,4.72,0,7.76-4.72,7.76-11.76,0-5.84-2.24-11.76-7.76-11.76C71,33.6,68.88,39.6,68.88,45.36Z"/><path class="cls-3" d="M141.6,52.4c0,5.12.16,9.28.32,12.56H131.36l-.56-5.52h-.24a14,14,0,0,1-12.24,6.4c-7.92,0-13.76-5-13.76-17v-23H116.8v21c0,5.68,1.84,9.12,6.08,9.12A6.55,6.55,0,0,0,129,51.76a6.81,6.81,0,0,0,.4-2.64V25.84H141.6Z"/><path class="cls-3" d="M151,65c.16-2.56.32-7.28.32-11.68V8.16h12.16V30.48h.16C166,27.12,170.08,25,175.52,25c9.36,0,16.24,7.76,16.16,19.76,0,14.08-9,21.12-17.92,21.12-4.56,0-9-1.68-11.76-6.32h-.16L161.36,65Zm12.48-16.64a8.91,8.91,0,0,0,.24,2.16,7.36,7.36,0,0,0,7.12,5.76c5.2,0,8.4-4,8.4-11,0-6.08-2.72-10.88-8.4-10.88a7.54,7.54,0,0,0-7.12,6,10.11,10.11,0,0,0-.24,2.24Z"/><path class="cls-3" d="M199.2,8.16h12.16V65H199.2Z"/><path class="cls-3" d="M230.56,49.28c.4,5,5.36,7.44,11,7.44a34.46,34.46,0,0,0,10.8-1.6l1.6,8.24a38.6,38.6,0,0,1-14.16,2.4c-13.28,0-20.88-7.68-20.88-19.92C219,35.92,225.12,25,238.72,25c12.64,0,17.44,9.84,17.44,19.52a28.85,28.85,0,0,1-.4,4.8ZM244.88,41c0-3-1.28-7.92-6.88-7.92-5.12,0-7.2,4.64-7.52,7.92Z"/><path class="cls-3" d="M316.48,52.4c0,5.12.16,9.28.32,12.56H306.24l-.56-5.52h-.24a14,14,0,0,1-12.24,6.4c-7.92,0-13.76-5-13.76-17v-23h12.24v21c0,5.68,1.84,9.12,6.08,9.12a6.55,6.55,0,0,0,6.08-4.24,6.81,6.81,0,0,0,.4-2.64V25.84h12.24Z"/><path class="cls-3" d="M326.24,39c0-5.12-.16-9.52-.32-13.12h10.56l.56,5.44h.16c2.88-4.16,7.36-6.32,13-6.32,8.56,0,16.24,7.44,16.24,19.92,0,14.24-9,21-17.76,21-4.72,0-8.4-1.92-10.16-4.48h-.16V80.8H326.24Zm12.16,9.2a12.11,12.11,0,0,0,.24,2.56,7.36,7.36,0,0,0,7.12,5.76c5.28,0,8.4-4.4,8.4-11,0-6.24-2.8-11-8.24-11a7.64,7.64,0,0,0-7.28,6.16,9.39,9.39,0,0,0-.24,2.16Z"/><path class="cls-3" d="M370.48,58.48c0-4.32,3-7.44,7.2-7.44s7.12,3,7.12,7.44a7.16,7.16,0,1,1-14.32,0Z"/></g></g></svg>