<svg xmlns="http://www.w3.org/2000/svg" viewBox="0 0 48 43.84"><defs><style>.cls-1{fill:#e41f35;}</style></defs><title>home</title><g id="Layer_2" data-name="Layer 2"><g id="Layer_1-2" data-name="Layer 1"><path class="cls-1" d="M46.92,21.39,26.61,1.08a3.69,3.69,0,0,0-5.22,0L1.08,21.39A3.69,3.69,0,0,0,6.3,26.61L24,8.91l17.7,17.7a3.69,3.69,0,1,0,5.22-5.22Z"/><path class="cls-1" d="M7.38,28.17v12a3.69,3.69,0,0,0,3.69,3.69h7.38V32.61a3.69,3.69,0,0,1,3.69-3.69h3.69a3.69,3.69,0,0,1,3.69,3.69V43.84h7.38a3.69,3.69,0,0,0,3.69-3.69v-12L24,11.56Z"/></g></g></svg>