<svg xmlns="http://www.w3.org/2000/svg" viewBox="0 0 64 64"><defs><style>.cls-1{fill:#fff;}</style></defs><title>info</title><g id="Layer_2" data-name="Layer 2"><g id="Layer_1-2" data-name="Layer 1"><path class="cls-1" d="M32,0A30.82,30.82,0,0,1,44.44,2.53a32.42,32.42,0,0,1,17,17A30.81,30.81,0,0,1,64,32a30.8,30.8,0,0,1-2.53,12.44,32.42,32.42,0,0,1-17,17A30.82,30.82,0,0,1,32,64a30.82,30.82,0,0,1-12.44-2.53,32.42,32.42,0,0,1-17-17A30.8,30.8,0,0,1,0,32,30.81,30.81,0,0,1,2.53,19.56a32.42,32.42,0,0,1,17-17A30.82,30.82,0,0,1,32,0m0,1.81A29.82,29.82,0,0,0,20.19,4.16a29.91,29.91,0,0,0-16,16A29.81,29.81,0,0,0,1.81,32a30.05,30.05,0,0,0,8.78,21.41A30.05,30.05,0,0,0,32,62.19a29.48,29.48,0,0,0,11.81-2.37,30.3,30.3,0,0,0,16-16.09A29.42,29.42,0,0,0,62.19,32a29.65,29.65,0,0,0-2.34-11.75,30.14,30.14,0,0,0-6.44-9.59,30.6,30.6,0,0,0-9.59-6.47A29.48,29.48,0,0,0,32,1.81m0,20.81a3,3,0,0,1-2.34-.94,3.33,3.33,0,0,1-.84-2.31,3.07,3.07,0,0,1,.94-2.25,3.3,3.3,0,0,1,2.44-.94,3,3,0,0,1,2.34.94,3.25,3.25,0,0,1,.84,2.25,3.14,3.14,0,0,1-.94,2.31,3.3,3.3,0,0,1-2.44.94M35.19,45H29V25h6.19Z"/></g></g></svg>