<svg class="cardinal-logo" viewBox="0 0 125 40" xmlns="http://www.w3.org/2000/svg"><style>.wings { fill: #ED1C24; } .logo-words { fill: #FFFFFF; }</style><path class="wings" d="M66.8 8.4c-12.6.4-24.4 4.4-32.3 9.2-.3-.5-.7-1-1.1-1.5 7.1-4.4 17-8 25.5-9.1l-.1-.1c-9 .9-17.9 3.7-24.2 7.1-.3-.4-.6-.9-.9-1.3C39.2 9.5 46.3 7 53 5.8l-.1-.1C45 6.9 37.9 9.1 33 11.9c-.4-.4-.7-.8-1.2-1.2.5-.3 1.1-.6 1.6-.9.2.3.5.5.7.8l.3-.3c-.2-.3-.4-.6-.6-.8 4.1-2.1 9.1-3.7 13-4.5h-.1c-4 .7-9.3 1.9-13.4 3.9-3.3-4-10.1-6.7-20-8.6l-.1.1c8.9 2 15.5 5.1 19.5 8.8-.6.3-1.1.6-1.7 1-4.7-3.9-13.1-7.4-24.2-9v-.1c9.7 1.8 17.9 5.3 23.4 9.6-.5.4-1 .8-1.4 1.3C22.6 7.7 13 4.1.1 2.4l-.1.1C10.7 4.2 21.8 8 29.3 14.3c-1 .9-1.8 1.7-2.4 2.7l.3.3c.8-.8 1.8-1.6 2.8-2.3.4.3.8.7 1.1 1.1-2.6 1.8-4.5 3.7-5.3 5.5l.3.3c1.4-1.7 3.5-3.3 5.8-4.9.4.5.8.9 1.2 1.4-4.9 3.2-8.1 6.7-8.8 10l.4.3c2.1-3.5 5.3-6.5 9.3-9.1.6.9 1.2 1.7 1.7 2.7l.3-.2c-.2-1-.5-2-1.1-3C45.1 12.6 58.6 8.9 66.8 8.4zm-37.6 4c.5-.4 1-.8 1.6-1.2.4.4.8.7 1.2 1.1-.6.3-1.1.7-1.6 1-.3-.3-.7-.6-1.2-.9zm2.1 1.7c.5-.3 1-.7 1.5-1 .4.4.8.8 1.1 1.2l-1.5.9c-.3-.4-.7-.8-1.1-1.1z"/><path class="logo-words" d="M59.5 27.9h2v1.9h-2v-1.9zm0 3.5h2v8.2h-2v-8.2zM79.8 27.7h2v11.9h-2V27.7zM83.9 27.7h1v5.1h4.4v-5.1h1v11.9h-1v-6h-4.4v6h-1V27.7zM93.2 35.8c0 3 2 3.1 2.4 3.1.5 0 1.3-.3 1.8-.7l.1 1c-.4.2-.9.5-1.9.5-3.2 0-3.3-3.4-3.3-4.2 0-2.8 1.1-4.2 2.9-4.2 2 0 2.9 1.6 2.9 4.5h-4.9zm3.6-.9c0-1.8-.7-2.8-1.8-2.8-1.3 0-1.8 1.2-1.8 2.8h3.6zM106.8 27.7h1v11.9h-1V27.7zM111.3 29.5v1.9h1.7v.8h-1.7v5.4c0 .7.1 1.3.9 1.3.4 0 .6-.1.7-.1v.8c-.1 0-.4.1-.9.1-1.4 0-1.7-.9-1.7-1.8v-5.7h-1.2v-.8h1.2v-1.6l1-.3zM38 31.9c.6-.3 1.3-.6 2.5-.6 2.5 0 3.3 1.2 3.3 3.1v3.8c0 .6.1 1.1.1 1.4h-1.8c-.1-.3-.1-.7-.1-.9-.3.3-1 1.1-2.3 1.1-1.4 0-2.5-.9-2.5-2.4 0-2.2 2-2.8 4-2.8h.8v-.3c0-.8-.4-1.6-1.5-1.6-1 0-1.9.5-2.2.8l-.3-1.6zm3.9 3.7h-.7c-.9 0-2.1.3-2.1 1.5 0 .7.5 1.3 1.3 1.3 1.1 0 1.6-.9 1.6-1.9v-.9zM72.1 31.9c.6-.3 1.3-.6 2.5-.6 2.5 0 3.3 1.2 3.3 3.1v3.8c0 .6.1 1.1.1 1.4h-1.8c-.1-.3-.1-.7-.1-.9-.3.3-1 1.1-2.3 1.1-1.4 0-2.5-.9-2.5-2.4 0-2.2 2-2.8 4-2.8h.7v-.3c0-.8-.4-1.6-1.5-1.6-1 0-1.9.5-2.2.8l-.2-1.6zm3.9 3.7h-.7c-.9 0-2.1.3-2.1 1.5 0 .7.5 1.3 1.2 1.3 1.1 0 1.6-.9 1.6-1.9v-.9zM45.7 32.8c0-.5 0-1-.1-1.4h1.8c0 .5.1.6.1 1.1.2-.4.5-1.3 2.1-1.3h.3V33c-.1 0-.3-.1-.6-.1-.8 0-1.7.5-1.7 2v4.5h-2v-6.6zM57.5 27.7v10.5c0 .6 0 1.1.1 1.4h-1.9c0-.2-.1-.7-.1-1.1-.1.2-.6 1.2-2.2 1.2-2 0-2.9-1.9-2.9-4.2 0-2.7 1-4.2 3-4.2 1.3 0 1.8.8 1.9 1v-4.6h2.1zM54 38.3c1.2 0 1.6-1.3 1.6-2.8 0-1.6-.5-2.7-1.5-2.7-1.1 0-1.5 1.1-1.5 2.7-.1 1.8.2 2.8 1.4 2.8zM36.2 39.4c-.2.1-.8.4-2.4.4-3.4 0-5.1-2.5-5.1-5.7s1.7-5.7 5.1-5.7c1.5 0 2.2.3 2.5.4l-.3 1.8c-.2-.1-.8-.6-2.1-.6-1.7 0-3.1 1.2-3.1 4 0 2.9 1.5 4 3.1 4 1 0 1.6-.2 2.1-.6l.2 2zM63.5 32.8c0-.5 0-1-.1-1.4h1.9c0 .3.1.8.1 1 .2-.3.7-1.2 2.1-1.2 1.7 0 2.5 1.1 2.5 2.7v5.6h-2v-5.3c0-1-.6-1.4-1.3-1.4-.7 0-1.3.4-1.3 1.4v5.3h-2v-6.7zM114.3 27.7h1v4.5c.2-.3.7-.9 2-.9 1.5 0 2.4 1.3 2.4 2.4v5.9h-1v-5.7c0-1.1-.6-1.8-1.7-1.8-1 0-1.7.7-1.7 1.8v5.7h-1V27.7zM103.7 34c0-1.1-.4-1.8-1.8-1.8-1.1 0-1.9.8-2 .9l-.1-1c.5-.3 1.1-.7 2.2-.7 2.3 0 2.7 1.7 2.7 2.5v3.9c0 .6 0 1.2.1 1.8h-.9l-.1-1c-.2.3-.7 1.1-2.2 1.1-1.5 0-2.4-1-2.4-2.4 0-2.1 1.8-2.6 3.9-2.6h.7V34zm-.8 1.5c-1.7 0-2.8.5-2.8 1.8 0 .8.5 1.6 1.6 1.6.4 0 2-.2 2-2.4v-1h-.8z"/><g><path class="logo-words" d="M120.6 27.6h-.8v-.4h2.1v.4h-.8v2.3h-.5v-2.3zM124.5 28.8v-1.2l-.3 1-.4 1.2h-.4l-.4-1.2c-.1-.3-.2-.7-.3-1.1v1.2l-.1 1.1h-.5l.2-2.7h.7l.4 1.1.3 1c.1-.3.2-.6.3-1l.4-1.1h.6l.2 2.7h-.5l-.2-1z"/></g></svg>